<svg id="Calque_1" data-name="Calque 1" xmlns="http://www.w3.org/2000/svg" viewBox="0 0 756 854">
  <defs>
    <style>
      .cls-1, .cls-4 {
        fill: none;
      }

      .cls-1, .cls-2, .cls-5 {
        stroke: #fff;
        stroke-miterlimit: 10;
      }

      .cls-1 {
        stroke-width: 25px;
      }

      .cls-2, .cls-3, .cls-5, .cls-6 {
        fill: #fff;
      }

      .cls-2 {
        stroke-width: 9px;
      }

      .cls-5 {
        stroke-width: 21px;
      }

      .cls-6 {
        font-size: 125px;
        font-family: Poppins-SemiBold, Poppins;
        font-weight: 600;
      }
    </style>
  </defs>
  <title>Plan de travail 1</title>
  <path class="cls-1" d="M379.5,100.8a257.36,257.36,0,0,1,155.67,61.87"/>
  <path class="cls-1" d="M354.5,617.2c-137-6.52-246-119.63-246-258.2s109-251.68,246-258.2"/>
  <path class="cls-1" d="M622.47,398.7C604,518.6,503.13,611.3,379.53,617.2"/>
  <ellipse class="cls-2" cx="271.5" cy="290" rx="18" ry="30.5"/>
  <ellipse class="cls-2" cx="454.5" cy="290" rx="18" ry="30.5"/>
  <path class="cls-2" d="M142.5,229.5s-36-125-23-141,125.27,42.67,125.27,42.67"/>
  <g id="moustache">
    <rect class="cls-3" x="178" y="435" width="78" height="11" rx="5.5"/>
    <rect class="cls-3" x="178" y="457" width="78" height="11" rx="5.5"/>
  </g>
  <polyline class="cls-4" points="379.5 617.2 379.5 701.5 354.5 701.5 354.5 617.2"/>
  <polyline class="cls-4" points="354.5 100.8 354.5 38.5 379.5 38.5 379.5 100.8"/>
  <path class="cls-5" d="M616.5,405.5c-15.19,6-17,11-32,14-45.47,9.17-56-30.46-56-30.46l7-226.54S689.7,301.44,693.83,318.76,616.5,405.5,616.5,405.5Z"/>
  <g>
    <ellipse class="cls-3" cx="446.76" cy="442.9" rx="7.24" ry="6.9"/>
    <ellipse class="cls-3" cx="465.76" cy="479.1" rx="7.24" ry="6.9"/>
    <ellipse class="cls-3" cx="423.24" cy="479.1" rx="7.24" ry="6.9"/>
  </g>
  <text class="cls-6" transform="translate(74.27 773.78)">Lucky you</text>
  <ellipse class="cls-3" cx="367" cy="421.5" rx="38" ry="20.5"/>
</svg>
